<svg version="1.1" id="Layer_1" xmlns="http://www.w3.org/2000/svg" xmlns:xlink="http://www.w3.org/1999/xlink" x="0px" y="0px"
	 width="100%" viewBox="0 0 1024 1024" enable-background="new 0 0 1024 1024" xml:space="preserve">
<path fill="#F7F7F7" opacity="1.000000" stroke="none" 
	d="
M1025.000000,628.000000 
	C1025.000000,760.319214 1025.000000,892.638428 1025.000000,1024.978760 
	C683.717285,1024.978760 342.434509,1024.978760 1.075890,1024.978760 
	C1.075890,683.753723 1.075890,342.507446 1.075890,1.130577 
	C342.209808,1.130577 683.419678,1.130577 1025.000000,1.130577 
	C1025.000000,142.694489 1025.000000,284.389282 1024.653320,426.504883 
	C1023.136169,425.821625 1021.875061,424.798218 1020.810669,423.600067 
	C1015.302734,417.399536 1010.373535,410.563568 1004.236633,405.073700 
	C996.480164,398.134949 987.794067,392.226532 979.417725,385.996277 
	C977.395813,384.492371 976.861084,383.213226 977.614136,380.599274 
	C981.323181,367.725250 985.254456,354.875671 988.072510,341.794525 
	C991.644775,325.212494 990.457397,308.544220 987.039856,291.951447 
	C980.898071,262.132935 967.220398,236.336060 945.423279,215.201767 
	C937.391785,207.414490 928.084045,200.829742 918.863892,194.406357 
	C900.571960,181.663010 879.830750,175.604111 857.775513,174.057358 
	C838.824219,172.728287 820.578247,176.463013 802.438904,181.842926 
	C788.181641,186.071487 774.787109,192.894180 759.598572,194.494324 
	C742.819946,196.262009 728.103333,192.048004 715.901245,181.087723 
	C704.663391,170.993561 695.260742,158.846878 683.957642,148.837570 
	C674.225342,140.219284 663.486145,132.420029 652.238953,125.904099 
	C634.921387,115.871414 616.268188,108.629402 596.044373,106.916481 
	C583.666382,105.868103 571.152405,104.566750 558.817078,105.315544 
	C541.235840,106.382805 523.972778,110.381393 508.053497,118.243416 
	C494.687622,124.844421 481.656647,132.169662 468.756958,139.655945 
	C455.312042,147.458603 442.848663,156.876617 427.563141,161.389130 
	C407.878693,167.200256 390.020508,163.457840 373.676453,152.028503 
	C362.550690,144.248306 352.696533,134.547501 341.225769,127.383522 
	C314.955048,110.976372 285.985992,102.572609 254.918655,102.065567 
	C248.043503,101.953362 241.063324,102.076393 234.292267,103.127090 
	C221.730118,105.076431 208.791840,106.378082 196.917831,110.539368 
	C181.851273,115.819496 167.256500,122.903191 153.281815,130.687607 
	C143.250183,136.275574 134.096252,143.745544 125.391457,151.339554 
	C111.265442,163.663055 100.441902,178.832260 90.730270,194.810394 
	C76.068291,218.933136 67.597244,245.191879 65.187630,273.145294 
	C63.367737,294.257599 65.701973,315.281921 71.487778,335.747864 
	C73.813820,343.975708 76.960777,351.971497 79.733719,360.072510 
	C65.256294,373.203033 52.840649,388.142853 42.359516,404.554688 
	C23.822712,433.580475 12.378610,465.236694 10.146526,499.747498 
	C9.075707,516.303772 10.530602,532.815125 13.758417,549.213440 
	C18.322096,572.398376 27.101480,593.765259 41.297028,612.492310 
	C49.569447,623.405518 58.903683,633.840271 69.236000,642.785645 
	C83.236397,654.906677 99.744347,663.307739 117.579086,668.845032 
	C119.229935,669.357544 121.060226,670.892456 121.807617,672.436462 
	C124.985085,679.000732 127.447456,685.921692 130.783020,692.397156 
	C144.995651,719.988831 165.880096,740.682617 194.079498,754.150513 
	C215.485519,764.373840 238.027145,768.575745 261.470581,768.938293 
	C266.922089,769.022644 272.430298,768.664429 277.834473,767.933472 
	C290.440033,766.228638 303.116150,764.734436 315.546387,762.121216 
	C331.928589,758.677124 348.019562,754.307739 365.101746,756.883057 
	C378.835541,758.953674 391.000244,763.868896 401.008484,773.552734 
	C411.956238,784.145691 418.297241,797.907593 425.275482,811.014404 
	C436.159637,831.457581 449.023499,850.266907 466.852509,865.083923 
	C476.994598,873.512573 487.826874,881.425720 499.313080,887.844666 
	C514.616394,896.396851 531.456909,900.592712 549.138794,902.276672 
	C567.696106,904.044128 585.661072,902.246582 603.050720,896.298645 
	C633.602417,885.848755 657.731873,866.116455 676.463440,840.388306 
	C690.492920,821.118469 703.076782,800.711914 715.191833,780.155884 
	C727.356201,759.516113 740.609070,740.012451 759.554138,724.981750 
	C772.662170,714.582153 787.551086,708.069031 804.380554,708.183167 
	C818.593628,708.279480 832.783264,710.403809 847.007080,710.822571 
	C858.778015,711.169189 870.657410,711.047302 882.354309,709.835632 
	C895.307129,708.493958 908.300354,706.456238 920.929138,703.323486 
	C940.568481,698.451660 958.757935,689.858643 975.297424,678.104980 
	C989.833435,667.775208 1003.065369,656.004944 1013.902710,641.701172 
	C1017.450073,637.019165 1021.292542,632.560730 1025.000000,628.000000 
z"/>
<path fill="#FEFFFF" opacity="1.000000" stroke="none" 
	d="
M1025.000000,627.531372 
	C1021.292542,632.560730 1017.450073,637.019165 1013.902710,641.701172 
	C1003.065369,656.004944 989.833435,667.775208 975.297424,678.104980 
	C958.757935,689.858643 940.568481,698.451660 920.929138,703.323486 
	C908.300354,706.456238 895.307129,708.493958 882.354309,709.835632 
	C870.657410,711.047302 858.778015,711.169189 847.007080,710.822571 
	C832.783264,710.403809 818.593628,708.279480 804.380554,708.183167 
	C787.551086,708.069031 772.662170,714.582153 759.554138,724.981750 
	C740.609070,740.012451 727.356201,759.516113 715.191833,780.155884 
	C703.076782,800.711914 690.492920,821.118469 676.463440,840.388306 
	C657.731873,866.116455 633.602417,885.848755 603.050720,896.298645 
	C585.661072,902.246582 567.696106,904.044128 549.138794,902.276672 
	C531.456909,900.592712 514.616394,896.396851 499.313080,887.844666 
	C487.826874,881.425720 476.994598,873.512573 466.852509,865.083923 
	C449.023499,850.266907 436.159637,831.457581 425.275482,811.014404 
	C418.297241,797.907593 411.956238,784.145691 401.008484,773.552734 
	C391.000244,763.868896 378.835541,758.953674 365.101746,756.883057 
	C348.019562,754.307739 331.928589,758.677124 315.546387,762.121216 
	C303.116150,764.734436 290.440033,766.228638 277.834473,767.933472 
	C272.430298,768.664429 266.922089,769.022644 261.470581,768.938293 
	C238.027145,768.575745 215.485519,764.373840 194.079498,754.150513 
	C165.880096,740.682617 144.995651,719.988831 130.783020,692.397156 
	C127.447456,685.921692 124.985085,679.000732 121.807617,672.436462 
	C121.060226,670.892456 119.229935,669.357544 117.579086,668.845032 
	C99.744347,663.307739 83.236397,654.906677 69.236000,642.785645 
	C58.903683,633.840271 49.569447,623.405518 41.297028,612.492310 
	C27.101480,593.765259 18.322096,572.398376 13.758417,549.213440 
	C10.530602,532.815125 9.075707,516.303772 10.146526,499.747498 
	C12.378610,465.236694 23.822712,433.580475 42.359516,404.554688 
	C52.840649,388.142853 65.256294,373.203033 79.733719,360.072510 
	C76.960777,351.971497 73.813820,343.975708 71.487778,335.747864 
	C65.701973,315.281921 63.367737,294.257599 65.187630,273.145294 
	C67.597244,245.191879 76.068291,218.933136 90.730270,194.810394 
	C100.441902,178.832260 111.265442,163.663055 125.391457,151.339554 
	C134.096252,143.745544 143.250183,136.275574 153.281815,130.687607 
	C167.256500,122.903191 181.851273,115.819496 196.917831,110.539368 
	C208.791840,106.378082 221.730118,105.076431 234.292267,103.127090 
	C241.063324,102.076393 248.043503,101.953362 254.918655,102.065567 
	C285.985992,102.572609 314.955048,110.976372 341.225769,127.383522 
	C352.696533,134.547501 362.550690,144.248306 373.676453,152.028503 
	C390.020508,163.457840 407.878693,167.200256 427.563141,161.389130 
	C442.848663,156.876617 455.312042,147.458603 468.756958,139.655945 
	C481.656647,132.169662 494.687622,124.844421 508.053497,118.243416 
	C523.972778,110.381393 541.235840,106.382805 558.817078,105.315544 
	C571.152405,104.566750 583.666382,105.868103 596.044373,106.916481 
	C616.268188,108.629402 634.921387,115.871414 652.238953,125.904099 
	C663.486145,132.420029 674.225342,140.219284 683.957642,148.837570 
	C695.260742,158.846878 704.663391,170.993561 715.901245,181.087723 
	C728.103333,192.048004 742.819946,196.262009 759.598572,194.494324 
	C774.787109,192.894180 788.181641,186.071487 802.438904,181.842926 
	C820.578247,176.463013 838.824219,172.728287 857.775513,174.057358 
	C879.830750,175.604111 900.571960,181.663010 918.863892,194.406357 
	C928.084045,200.829742 937.391785,207.414490 945.423279,215.201767 
	C967.220398,236.336060 980.898071,262.132935 987.039856,291.951447 
	C990.457397,308.544220 991.644775,325.212494 988.072510,341.794525 
	C985.254456,354.875671 981.323181,367.725250 977.614136,380.599274 
	C976.861084,383.213226 977.395813,384.492371 979.417725,385.996277 
	C987.794067,392.226532 996.480164,398.134949 1004.236633,405.073700 
	C1010.373535,410.563568 1015.302734,417.399536 1020.810669,423.600067 
	C1021.875061,424.798218 1023.136169,425.821625 1024.653320,426.962830 
	C1025.000000,493.687561 1025.000000,560.375122 1025.000000,627.531372 
M431.192627,202.416412 
	C415.821594,206.168549 400.471283,205.590988 384.516083,201.905136 
	C367.521454,197.279968 352.868927,188.442459 339.600647,177.059753 
	C307.712769,149.703522 271.128967,138.534439 229.326187,144.739578 
	C193.915451,149.995911 163.872559,165.400253 140.852707,192.800095 
	C103.469803,237.295853 96.939751,287.240204 117.484505,340.989624 
	C121.168198,350.626923 126.840523,359.504120 131.715942,368.967682 
	C130.470947,370.041351 128.988037,371.352783 127.471039,372.623535 
	C107.922066,388.999390 89.150337,406.082947 74.796974,427.487152 
	C45.999016,470.431549 41.243183,516.416626 58.431519,564.563538 
	C67.528152,590.044495 84.159195,610.059082 108.237503,623.283691 
	C119.899765,629.688904 132.580811,632.712280 145.680084,634.014587 
	C150.185120,634.462524 152.702286,635.564026 154.240295,640.590576 
	C157.621384,651.640686 161.321808,662.762756 166.458115,673.075317 
	C184.159149,708.615295 212.874176,728.482483 252.839783,730.950439 
	C272.194733,732.145630 291.146820,728.929504 309.903839,724.380859 
	C329.161255,719.710815 348.523285,716.224609 368.482056,719.166809 
	C402.579193,724.193115 429.134094,740.067566 445.770172,771.253967 
	C457.329437,792.923279 468.778137,814.733398 485.786316,832.950439 
	C504.289124,852.768311 526.911926,864.565186 553.921326,865.821045 
	C585.619690,867.294861 612.992310,856.164001 634.706665,832.757568 
	C651.979431,814.139099 665.215210,792.588684 677.921631,770.708679 
	C693.225342,744.356384 709.418579,718.645020 732.976624,698.584106 
	C758.222839,677.085571 787.387451,667.033508 820.448730,670.249390 
	C845.981018,672.733032 871.395569,674.505066 896.856506,670.086914 
	C914.790771,666.974854 931.982788,661.607666 947.426453,651.793213 
	C972.841431,635.641907 991.091187,613.175049 1003.419434,585.908203 
	C1018.219482,553.174194 1020.973938,519.338440 1009.661804,485.146088 
	C996.807312,446.291595 969.580078,420.653748 932.310303,405.088257 
	C927.248352,402.974182 921.978271,401.358490 917.303101,399.689972 
	C922.859070,391.921509 928.571228,384.777100 933.369324,377.064026 
	C946.497742,355.959534 952.038208,332.754547 949.731201,308.083557 
	C947.567871,284.949677 938.183899,264.596344 922.547424,247.392029 
	C902.996094,225.880432 878.767029,213.852219 849.453796,213.146271 
	C834.331482,212.782074 819.993713,216.993484 805.668030,221.378784 
	C791.917786,225.587906 778.160461,230.963120 764.040222,232.531647 
	C732.519836,236.033066 705.330994,225.022766 682.577271,203.038498 
	C672.534485,193.335342 663.222412,182.734985 652.394897,174.011063 
	C617.709534,146.064270 578.683777,138.068329 535.693298,150.779343 
	C517.005493,156.304779 500.574188,166.219849 484.410706,176.711487 
	C467.973755,187.380646 451.282440,197.547318 431.192627,202.416412 
z"/>
<path fill="#14B7B8" opacity="1.000000" stroke="none" 
	d="
M431.958954,202.310455 
	C451.282440,197.547318 467.973755,187.380646 484.410706,176.711487 
	C500.574188,166.219849 517.005493,156.304779 535.693298,150.779343 
	C578.683777,138.068329 617.709534,146.064270 652.394897,174.011063 
	C663.222412,182.734985 672.534485,193.335342 682.577271,203.038498 
	C705.330994,225.022766 732.519836,236.033066 764.040222,232.531647 
	C778.160461,230.963120 791.917786,225.587906 805.668030,221.378784 
	C819.993713,216.993484 834.331482,212.782074 849.453796,213.146271 
	C878.767029,213.852219 902.996094,225.880432 922.547424,247.392029 
	C938.183899,264.596344 947.567871,284.949677 949.731201,308.083557 
	C952.038208,332.754547 946.497742,355.959534 933.369324,377.064026 
	C928.571228,384.777100 922.859070,391.921509 917.303101,399.689972 
	C921.978271,401.358490 927.248352,402.974182 932.310303,405.088257 
	C969.580078,420.653748 996.807312,446.291595 1009.661804,485.146088 
	C1020.973938,519.338440 1018.219482,553.174194 1003.419434,585.908203 
	C991.091187,613.175049 972.841431,635.641907 947.426453,651.793213 
	C931.982788,661.607666 914.790771,666.974854 896.856506,670.086914 
	C871.395569,674.505066 845.981018,672.733032 820.448730,670.249390 
	C787.387451,667.033508 758.222839,677.085571 732.976624,698.584106 
	C709.418579,718.645020 693.225342,744.356384 677.921631,770.708679 
	C665.215210,792.588684 651.979431,814.139099 634.706665,832.757568 
	C612.992310,856.164001 585.619690,867.294861 553.921326,865.821045 
	C526.911926,864.565186 504.289124,852.768311 485.786316,832.950439 
	C468.778137,814.733398 457.329437,792.923279 445.770172,771.253967 
	C429.134094,740.067566 402.579193,724.193115 368.482056,719.166809 
	C348.523285,716.224609 329.161255,719.710815 309.903839,724.380859 
	C291.146820,728.929504 272.194733,732.145630 252.839783,730.950439 
	C212.874176,728.482483 184.159149,708.615295 166.458115,673.075317 
	C161.321808,662.762756 157.621384,651.640686 154.240295,640.590576 
	C152.702286,635.564026 150.185120,634.462524 145.680084,634.014587 
	C132.580811,632.712280 119.899765,629.688904 108.237503,623.283691 
	C84.159195,610.059082 67.528152,590.044495 58.431519,564.563538 
	C41.243183,516.416626 45.999016,470.431549 74.796974,427.487152 
	C89.150337,406.082947 107.922066,388.999390 127.471039,372.623535 
	C128.988037,371.352783 130.470947,370.041351 131.715942,368.967682 
	C126.840523,359.504120 121.168198,350.626923 117.484505,340.989624 
	C96.939751,287.240204 103.469803,237.295853 140.852707,192.800095 
	C163.872559,165.400253 193.915451,149.995911 229.326187,144.739578 
	C271.128967,138.534439 307.712769,149.703522 339.600647,177.059753 
	C352.868927,188.442459 367.521454,197.279968 384.936646,202.458527 
	C385.749969,203.292252 386.128235,203.793808 386.537567,203.820648 
	C397.913757,204.566574 409.288330,205.616425 420.674591,205.770065 
	C424.419830,205.820587 428.196594,203.530334 431.958954,202.310455 
M599.101868,467.538971 
	C599.492188,468.337799 599.882568,469.136627 600.787109,470.444427 
	C604.747681,484.700958 611.327148,497.604889 621.119263,508.725159 
	C646.913086,538.017578 679.545349,549.713257 717.715576,543.526001 
	C762.243225,536.308228 796.753418,501.012451 802.186340,457.844238 
	C805.746521,429.556427 800.530884,403.418701 782.448486,381.009674 
	C757.541138,350.142487 725.149109,336.225861 685.371826,340.942322 
	C658.698547,344.105042 637.138855,356.712006 620.004639,377.145874 
	C607.626526,391.907806 601.062683,409.247772 597.281982,428.105621 
	C596.987915,428.410645 596.693909,428.715637 596.399841,429.020660 
	C596.855103,429.340424 597.310303,429.660217 597.844299,430.527130 
	C597.578979,431.010315 597.313660,431.493469 596.438171,432.557281 
	C596.320435,440.157959 595.822693,447.779724 596.242676,455.350555 
	C596.457703,459.226318 598.315125,463.010956 599.319885,466.934357 
	C599.319885,466.934357 599.249146,466.805084 599.101868,467.538971 
M423.429474,367.047913 
	C396.245178,343.545807 364.902313,335.277435 329.793671,342.348114 
	C288.208130,350.723175 255.617661,386.150696 249.991913,428.807373 
	C245.290298,464.456818 255.843201,495.373810 282.954742,518.789307 
	C317.558105,548.675415 357.361053,553.846741 398.472351,534.388428 
	C436.259949,516.503235 455.709900,484.779510 456.439850,442.916321 
	C456.956055,413.312775 445.584778,388.004089 423.429474,367.047913 
z"/>
<path fill="#07A7A8" opacity="1.000000" stroke="none" 
	d="
M431.575806,202.363434 
	C428.196594,203.530334 424.419830,205.820587 420.674591,205.770065 
	C409.288330,205.616425 397.913757,204.566574 386.537567,203.820648 
	C386.128235,203.793808 385.749969,203.292252 385.245880,202.603729 
	C400.471283,205.590988 415.821594,206.168549 431.575806,202.363434 
z"/>
<path fill="#FEFFFF" opacity="1.000000" stroke="none" 
	d="
M423.684235,367.293121 
	C445.584778,388.004089 456.956055,413.312775 456.439850,442.916321 
	C455.709900,484.779510 436.259949,516.503235 398.472351,534.388428 
	C357.361053,553.846741 317.558105,548.675415 282.954742,518.789307 
	C255.843201,495.373810 245.290298,464.456818 249.991913,428.807373 
	C255.617661,386.150696 288.208130,350.723175 329.793671,342.348114 
	C364.902313,335.277435 396.245178,343.545807 423.684235,367.293121 
M355.099335,408.104797 
	C334.557770,407.078888 316.830109,422.911926 317.507233,444.061493 
	C318.126495,463.403809 332.413971,477.989807 352.203186,478.150085 
	C371.774536,478.308563 387.682648,463.281342 388.044861,444.293121 
	C388.408905,425.209015 376.076874,411.405640 355.099335,408.104797 
z"/>
<path fill="#FEFFFF" opacity="1.000000" stroke="none" 
	d="
M597.827515,428.017609 
	C601.062683,409.247772 607.626526,391.907806 620.004639,377.145874 
	C637.138855,356.712006 658.698547,344.105042 685.371826,340.942322 
	C725.149109,336.225861 757.541138,350.142487 782.448486,381.009674 
	C800.530884,403.418701 805.746521,429.556427 802.186340,457.844238 
	C796.753418,501.012451 762.243225,536.308228 717.715576,543.526001 
	C679.545349,549.713257 646.913086,538.017578 621.119263,508.725159 
	C611.327148,497.604889 604.747681,484.700958 600.479248,469.845642 
	C599.864014,468.432953 599.556580,467.619019 599.249146,466.805084 
	C599.249146,466.805084 599.319885,466.934357 599.388123,466.457764 
	C598.653687,454.646332 597.851013,443.311493 597.048340,431.976624 
	C597.313660,431.493469 597.578979,431.010315 597.878357,429.931152 
	C597.884094,428.895966 597.855835,428.456787 597.827515,428.017609 
M683.031189,413.380402 
	C669.842712,421.351685 664.479004,433.157013 665.955627,448.293762 
	C667.278687,461.856964 677.353210,473.377472 691.158386,477.155853 
	C704.401917,480.780487 720.192322,475.646210 727.841858,465.228241 
	C737.684448,451.823456 737.475647,434.080444 727.331543,421.882111 
	C716.429565,408.772552 699.978943,405.421173 683.031189,413.380402 
z"/>
<path fill="#03A7A6" opacity="1.000000" stroke="none" 
	d="
M596.743286,432.266968 
	C597.851013,443.311493 598.653687,454.646332 599.443298,466.408997 
	C598.315125,463.010956 596.457703,459.226318 596.242676,455.350555 
	C595.822693,447.779724 596.320435,440.157959 596.743286,432.266968 
z"/>
<path fill="#03A7A6" opacity="1.000000" stroke="none" 
	d="
M597.554749,428.061615 
	C597.855835,428.456787 597.884094,428.895966 597.838989,429.657593 
	C597.310303,429.660217 596.855103,429.340424 596.399841,429.020660 
	C596.693909,428.715637 596.987915,428.410645 597.554749,428.061615 
z"/>
<path fill="#03A7A6" opacity="1.000000" stroke="none" 
	d="
M599.175537,467.172028 
	C599.556580,467.619019 599.864014,468.432953 600.222168,469.591187 
	C599.882568,469.136627 599.492188,468.337799 599.175537,467.172028 
z"/>
<path fill="#15B7B7" opacity="1.000000" stroke="none" 
	d="
M355.519287,408.230896 
	C376.076874,411.405640 388.408905,425.209015 388.044861,444.293121 
	C387.682648,463.281342 371.774536,478.308563 352.203186,478.150085 
	C332.413971,477.989807 318.126495,463.403809 317.507233,444.061493 
	C316.830109,422.911926 334.557770,407.078888 355.519287,408.230896 
z"/>
<path fill="#14B7B7" opacity="1.000000" stroke="none" 
	d="
M683.351074,413.183899 
	C699.978943,405.421173 716.429565,408.772552 727.331543,421.882111 
	C737.475647,434.080444 737.684448,451.823456 727.841858,465.228241 
	C720.192322,475.646210 704.401917,480.780487 691.158386,477.155853 
	C677.353210,473.377472 667.278687,461.856964 665.955627,448.293762 
	C664.479004,433.157013 669.842712,421.351685 683.351074,413.183899 
z"/>
</svg>